# xmcd
#
# Track frame offsets:
#	150
#	26835
#	54552
#	78432
#	113172
#	138310
#	164965
#	195187
#	223950
#	250565
#	278557
#	299385
#
# Disc length: 4281 seconds
#
# Revision: 0
# Processed by: cddbd v1.4PL0 Copyright (c) Steve Scherf et al.
# Submitted via: dBpowerAMP V4.0
#
DISCID=b110b70c
DTITLE=Hariharan - My Favourite Hits
DYEAR=1990
DGENRE=Ghazals
TTITLE0=Ahde Masti Hai
TTITLE1=Main Khayal Hoon
TTITLE2=Dur
TTITLE3=Ek Bewafaa
TTITLE4=Ye Sochkar Us Se Milna
TTITLE5=Beeti Batein
TTITLE6=Badan Mein Aag
TTITLE7=Sakiya Jaye Kahan
TTITLE8=Ye Waqt Dil Pe Kada Hai
TTITLE9=Bhige Hue Lamhe
TTITLE10=Sham Hai Pur Shabab
TTITLE11=Bahut Udas Faza Hai
EXTD=Ghazals by Hariharan
EXTT0=
EXTT1=
EXTT2=
EXTT3=
EXTT4=
EXTT5=
EXTT6=
EXTT7=
EXTT8=
EXTT9=
EXTT10=
EXTT11=
PLAYORDER=
